HIERARCHY
ROOT pelvis
{
	OFFSET 0.000000 0.905597 -0.000000
	CHANNELS 6 Xposition Yposition Zposition Xrotation Yrotation Zrotation
	JOINT spine
	{
		OFFSET 0.000000 0.000000 0.000000
		CHANNELS 6 Xposition Yposition Zposition Xrotation Yrotation Zrotation
		JOINT spine.001
		{
			OFFSET 0.000000 0.286021 0.014990
			CHANNELS 3 Xrotation Yrotation Zrotation
			JOINT neck
			{
				OFFSET 0.000000 0.284278 -0.034905
				CHANNELS 6 Xposition Yposition Zposition Xrotation Yrotation Zrotation
				JOINT face
				{
					OFFSET 0.000000 0.209740 -0.003661
					CHANNELS 6 Xposition Yposition Zposition Xrotation Yrotation Zrotation
					End Site
					{
						OFFSET 0.000000 -0.008906 0.029649
					}
				}
			}
			JOINT shoulder.L
			{
				OFFSET 0.000000 0.284278 -0.034905
				CHANNELS 6 Xposition Yposition Zposition Yrotation Xrotation Zrotation
				JOINT upper_arm.L
				{
					OFFSET 0.176212 0.000000 0.000000
					CHANNELS 6 Xposition Yposition Zposition Xrotation Yrotation Zrotation
					JOINT forearm.L
					{
						OFFSET 0.321055 0.001092 -0.000132
						CHANNELS 6 Xposition Yposition Zposition Xrotation Yrotation Zrotation
						End Site
						{
							OFFSET 0.264216 -0.001504 0.004491
						}
					}
				}
			}
			JOINT shoulder.R
			{
				OFFSET 0.000000 0.284278 -0.034905
				CHANNELS 6 Xposition Yposition Zposition Yrotation Xrotation Zrotation
				JOINT upper_arm.R
				{
					OFFSET -0.176212 0.000000 0.000000
					CHANNELS 6 Xposition Yposition Zposition Xrotation Yrotation Zrotation
					JOINT forearm.R
					{
						OFFSET -0.306861 0.001092 -0.000132
						CHANNELS 6 Xposition Yposition Zposition Xrotation Yrotation Zrotation
						End Site
						{
							OFFSET -0.266230 -0.001504 0.004526
						}
					}
				}
			}
		}
	}
	JOINT pelvis.L
	{
		OFFSET 0.000000 0.000000 0.000000
		CHANNELS 6 Xposition Yposition Zposition Yrotation Xrotation Zrotation
		End Site
		{
			OFFSET 0.118829 0.000000 0.000000
		}
	}
	JOINT pelvis.R
	{
		OFFSET 0.000000 0.000000 0.000000
		CHANNELS 6 Xposition Yposition Zposition Yrotation Xrotation Zrotation
		End Site
		{
			OFFSET -0.118829 0.000000 0.000000
		}
	}
	JOINT thigh.L
	{
		OFFSET 0.118829 0.000000 0.000000
		CHANNELS 6 Xposition Yposition Zposition Xrotation Yrotation Zrotation
		JOINT shin.L
		{
			OFFSET 0.023045 -0.439733 0.000000
			CHANNELS 6 Xposition Yposition Zposition Xrotation Yrotation Zrotation
			JOINT foot.L
			{
				OFFSET 0.019808 -0.377965 0.000000
				CHANNELS 6 Xposition Yposition Zposition Xrotation Yrotation Zrotation
				End Site
				{
					OFFSET 0.018349 -0.078563 0.187092
				}
			}
		}
	}
	JOINT thigh.R
	{
		OFFSET -0.118829 0.000000 0.000000
		CHANNELS 6 Xposition Yposition Zposition Xrotation Yrotation Zrotation
		JOINT shin.R
		{
			OFFSET -0.023282 -0.444255 0.000000
			CHANNELS 6 Xposition Yposition Zposition Xrotation Yrotation Zrotation
			JOINT foot.R
			{
				OFFSET -0.020276 -0.386894 0.000000
				CHANNELS 6 Xposition Yposition Zposition Xrotation Yrotation Zrotation
				End Site
				{
					OFFSET -0.018548 -0.079415 0.189120
				}
			}
		}
	}
}
MOTION
Frames: 5
Frame Time: 0.041667
0.052094 -0.039333 0.056586 -0.000000 1.206246 0.000000 -0.000000 -0.000000 -0.000000 -2.455694 0.192611 -2.605139 10.001840 1.332019 -0.163588 -0.000000 0.284278 -0.034905 13.985903 15.574467 -0.543391 0.000000 0.209740 -0.003661 -3.029006 -0.000009 -0.000003 -0.000000 0.284278 -0.034905 0.099061 -0.000699 0.807239 0.176212 -0.000000 0.000000 4.380697 5.334306 -79.666179 0.321055 0.001092 -0.000132 -0.628352 -17.140056 -3.949971 -0.000000 0.284278 -0.034905 0.092251 -0.000611 0.751969 -0.176212 -0.000000 0.000000 1.946565 -2.470816 77.999101 -0.306861 0.001092 -0.000132 -0.256002 10.110728 2.774507 0.000000 -0.000000 -0.000000 -0.000038 -0.000001 -2.976428 0.000000 0.000000 -0.000000 -0.000000 0.000000 -2.976428 0.118669 -0.006170 0.000000 7.352861 0.143820 -3.761900 0.023045 -0.439733 0.000000 3.801648 0.151024 -1.451790 0.019808 -0.377965 0.000000 -13.296629 -3.394306 -0.539484 -0.118669 0.006170 0.000000 8.032245 -0.552855 -1.862000 -0.023282 -0.444255 0.000000 2.967934 -0.208464 -2.033704 -0.020276 -0.386894 0.000000 -17.555265 4.666206 1.015957 
0.053676 -0.040399 0.058442 -0.000000 1.635900 0.000000 -0.000000 -0.000000 -0.000000 -2.813569 0.187038 -2.426718 10.001077 1.010096 -0.124056 0.000000 0.284278 -0.034905 14.193320 15.066637 -0.962638 -0.000000 0.209740 -0.003661 -2.980695 -0.000000 0.000004 0.000000 0.284278 -0.034905 0.030651 -0.000064 0.249730 0.176212 -0.000000 0.000000 2.475143 3.065574 -79.093850 0.321055 0.001092 -0.000132 -0.544008 -15.866335 -3.690753 0.000000 0.284278 -0.034905 0.023921 -0.000044 0.194410 -0.176212 -0.000000 -0.000000 2.661822 -3.351557 78.147719 -0.306861 0.001092 -0.000132 -0.392699 11.578370 3.865441 0.000000 -0.000000 -0.000000 -0.000060 -0.000001 -3.236527 -0.000000 0.000000 -0.000000 0.000000 0.000000 -3.236528 0.118640 -0.006709 0.000000 7.557809 0.121467 -4.161162 0.023045 -0.439733 0.000000 3.659690 0.170831 -0.656660 0.019808 -0.377965 0.000000 -13.815892 -3.819011 -0.745862 -0.118640 0.006709 -0.000000 8.515911 -0.609528 -2.172970 -0.023282 -0.444255 0.000000 2.308663 -0.151730 -1.519128 -0.020276 -0.386894 0.000000 -16.970172 4.350680 0.857406 
0.055607 -0.042288 0.060407 -0.000000 2.438699 0.000000 -0.000000 0.000000 -0.000000 -3.150558 0.178207 -2.226712 10.000203 0.464790 -0.057069 0.000000 0.284278 -0.034905 14.292698 14.847609 -1.357448 -0.000000 0.209740 -0.003661 -2.869981 0.000001 0.000007 0.000000 0.284279 -0.034905 -0.021177 -0.000033 -0.171977 0.176212 -0.000000 0.000000 1.320107 1.662446 -78.909230 0.321055 0.001092 -0.000132 -0.634104 -17.772837 -3.804145 0.000000 0.284279 -0.034905 -0.027958 -0.000056 -0.227251 -0.176212 -0.000000 -0.000000 2.971327 -3.732893 78.186118 -0.306861 0.001092 -0.000132 -0.526285 12.916755 4.694612 -0.000000 0.000000 -0.000000 0.000012 0.000001 -3.451517 -0.000000 0.000000 -0.000000 0.000000 0.000000 -3.451517 0.118614 -0.007154 -0.000000 7.719931 0.107871 -4.401325 0.023045 -0.439733 0.000000 3.489578 0.180549 -0.078290 0.019808 -0.377965 0.000000 -14.063379 -4.415285 -1.073205 -0.118614 0.007154 -0.000000 9.137370 -0.679999 -2.494194 -0.023282 -0.444255 0.000000 1.585832 -0.096277 -0.947976 -0.020276 -0.386894 0.000000 -16.520810 3.625229 0.446227 
0.058107 -0.044962 0.063649 -0.000000 3.175968 0.000000 -0.000000 -0.000000 -0.000000 -3.585047 0.167220 -1.994317 10.000015 0.091137 -0.011180 0.000000 0.284278 -0.034905 14.328086 15.160537 -1.740227 0.000000 0.209740 -0.003661 -2.628307 -0.000003 0.000004 0.000000 0.284278 -0.034905 -0.056132 -0.000222 -0.456672 0.176212 -0.000000 -0.000000 0.477258 0.628940 -79.129080 0.321055 0.001092 -0.000132 -0.897861 -21.842644 -4.367608 0.000000 0.284278 -0.034905 -0.062919 -0.000280 -0.511985 -0.176212 -0.000000 -0.000000 2.794383 -3.525791 77.989210 -0.306861 0.001092 -0.000132 -0.718156 14.702831 5.645293 0.000000 -0.000000 0.000000 -0.000007 -0.000000 -3.609430 -0.000000 0.000000 0.000000 0.000000 0.000000 -3.609398 0.118593 -0.007481 0.000000 7.986336 0.099013 -4.581682 0.023045 -0.439733 0.000000 3.260773 0.178252 0.256337 0.019808 -0.377965 0.000000 -14.221093 -4.873762 -1.329289 -0.118593 0.007481 0.000000 9.867613 -0.761612 -2.805343 -0.023282 -0.444255 0.000000 0.837051 -0.047371 -0.477818 -0.020276 -0.386894 0.000000 -16.237246 2.899689 0.030276 
0.060818 -0.047558 0.069238 -0.000000 3.114409 0.000000 -0.000000 -0.000000 -0.000000 -4.242009 0.156930 -1.750989 10.000266 0.482100 -0.059187 0.000000 0.284278 -0.034905 14.433090 16.003490 -2.124292 0.000000 0.209740 -0.003661 -2.252246 0.000020 -0.000002 0.000000 0.284278 -0.034905 -0.082367 -0.000487 -0.670681 0.176212 -0.000000 0.000000 -1.085305 -1.267498 -79.471525 0.321055 0.001092 -0.000132 -1.231113 -24.479190 -5.421741 0.000000 0.284278 -0.034905 -0.089154 -0.000564 -0.725994 -0.176212 -0.000000 -0.000000 2.379401 -3.032687 77.555589 -0.306861 0.001092 -0.000132 -1.209828 18.108616 7.736200 -0.000000 0.000000 -0.000000 0.000058 0.000002 -3.729800 -0.000000 0.000000 -0.000000 0.000000 0.000000 -3.729836 0.118577 -0.007730 0.000000 8.472751 0.084830 -4.854796 0.023045 -0.439733 0.000000 3.088306 0.172151 0.379477 0.019808 -0.377965 0.000000 -14.680226 -4.744064 -1.228368 -0.118577 0.007730 0.000000 10.530368 -0.835455 -3.047088 -0.023282 -0.444255 0.000000 0.232164 -0.012839 -0.330558 -0.020276 -0.386894 0.000000 -16.056854 2.896606 0.042665 
